<svg xmlns="http://www.w3.org/2000/svg" viewBox="0 0 32 32" width="32" height="32">
  <!-- DuckDuckGo Search Engine Icon -->
  <!-- Simplified DuckDuckGo logo -->
  <circle cx="16" cy="16" r="14" fill="#de5833"/>
  
  <!-- Duck silhouette -->
  <path d="M12 10c-2 0-3.5 1.5-3.5 3.5 0 1 0.4 1.9 1 2.5l-1 3c0 0.5 0.5 1 1 1h1c0.5 0 1-0.5 1-1v-1h2v1c0 0.5 0.5 1 1 1h1c0.5 0 1-0.5 1-1l-1-3c0.6-0.6 1-1.5 1-2.5 0-2-1.5-3.5-3.5-3.5z" fill="#ffffff"/>
  
  <!-- Duck eye -->
  <circle cx="11" cy="13" r="1" fill="#de5833"/>
  
  <!-- Duck beak -->
  <path d="M8 14l-2 1 2 1z" fill="#ffa500"/>
</svg>
