<svg xmlns="http://www.w3.org/2000/svg" viewBox="0 0 32 32" width="32" height="32">
  <!-- Google Search Engine Icon -->
  <!-- Simplified Google "G" logo -->
  <circle cx="16" cy="16" r="14" fill="#ffffff" stroke="#e0e0e0" stroke-width="1"/>
  
  <!-- Google G -->
  <path d="M16 8c-2.2 0-4.2 0.9-5.7 2.3L8.7 8.7C10.8 6.6 13.3 5.5 16 5.5c2.7 0 5.2 1.1 7.3 3.2l-1.6 1.6C20.2 8.9 18.2 8 16 8z" fill="#4285f4"/>
  <path d="M8 16c0-1.1 0.2-2.1 0.5-3.1L6.1 11.3C5.4 12.8 5 14.4 5 16s0.4 3.2 1.1 4.7l2.4-1.6C8.2 18.1 8 17.1 8 16z" fill="#34a853"/>
  <path d="M16 24c-2.2 0-4.2-0.9-5.7-2.3l-2.4 1.6C9.8 25.4 12.7 26.5 16 26.5c2.7 0 5.2-1.1 7.3-3.2l-1.6-1.6C20.2 23.1 18.2 24 16 24z" fill="#fbbc05"/>
  <path d="M24 16c0 1.1-0.2 2.1-0.5 3.1l2.4 1.6C26.6 19.2 27 17.6 27 16s-0.4-3.2-1.1-4.7l-2.4 1.6C23.8 13.9 24 14.9 24 16z" fill="#ea4335"/>
  
  <!-- Center circle -->
  <circle cx="16" cy="16" r="3" fill="#4285f4"/>
</svg>
