<svg xmlns="http://www.w3.org/2000/svg" viewBox="0 0 24 24" width="24" height="24">
  <circle cx="12" cy="12" r="11" fill="#de5833"/>
  <path fill="#fff" d="M12 2C6.48 2 2 6.48 2 12s4.48 10 10 10 10-4.48 10-10S17.52 2 12 2zm0 18c-4.41 0-8-3.59-8-8s3.59-8 8-8 8 3.59 8 8-3.59 8-8 8z"/>
  <circle cx="9" cy="10" r="1.5" fill="#de5833"/>
  <circle cx="15" cy="10" r="1.5" fill="#de5833"/>
  <path fill="#de5833" d="M12 16c-2.5 0-4.5-1.5-4.5-3.5h1c0 1.38 1.62 2.5 3.5 2.5s3.5-1.12 3.5-2.5h1c0 2-2 3.5-4.5 3.5z"/>
  <path fill="#de5833" d="M12 8c-1.1 0-2-.9-2-2V4c0-.55.45-1 1-1s1 .45 1 1v1c0 .55.45 1 1 1s1-.45 1-1V4c0-.55.45-1 1-1s1 .45 1 1v2c0 1.1-.9 2-2 2h-2z"/>
</svg>